ISO-10303-21;
HEADER;
FILE_DESCRIPTION (( 'STEP AP214' ),
    '1' );
FILE_NAME ('SwitchHolders.STEP',
    '2025-04-01T07:41:50',
    ( '' ),
    ( '' ),
    'SwSTEP 2.0',
    'SolidWorks 2025',
    '' );
FILE_SCHEMA (( 'AUTOMOTIVE_DESIGN' ));
ENDSEC;

DATA;
#1 = ORIENTED_EDGE ( 'NONE', *, *, #134, .F. ) ;
#2 = DIRECTION ( 'NONE',  ( 0.000000000000000000, 0.000000000000000000, 1.000000000000000000 ) ) ;
#3 = DIRECTION ( 'NONE',  ( 0.000000000000000000, 0.000000000000000000, 1.000000000000000000 ) ) ;
#4 = CYLINDRICAL_SURFACE ( 'NONE', #471, 1.124999999999998002 ) ;
#5 = ORIENTED_EDGE ( 'NONE', *, *, #699, .T. ) ;
#6 = DIRECTION ( 'NONE',  ( -0.000000000000000000, -1.000000000000000000, -0.000000000000000000 ) ) ;
#7 =( NAMED_UNIT ( * ) PLANE_ANGLE_UNIT ( ) SI_UNIT ( $, .RADIAN. ) );
#8 = ORIENTED_EDGE ( 'NONE', *, *, #683, .T. ) ;
#9 = CARTESIAN_POINT ( 'NONE',  ( 120.0000000000000000, 0.000000000000000000, 0.000000000000000000 ) ) ;
#10 = CARTESIAN_POINT ( 'NONE',  ( 114.9999999999999858, 6.400000000000000355, 3.000000000000000000 ) ) ;
#11 = LINE ( 'NONE', #608, #373 ) ;
#12 = CIRCLE ( 'NONE', #713, 1.124999999999998002 ) ;
#13 = CIRCLE ( 'NONE', #575, 1.125000000000000888 ) ;
#14 = ADVANCED_FACE ( 'NONE', ( #339 ), #635, .T. ) ;
#15 = ORIENTED_EDGE ( 'NONE', *, *, #650, .T. ) ;
#16 = CARTESIAN_POINT ( 'NONE',  ( 15.00000000000000000, 6.400000000000000355, 3.000000000000000000 ) ) ;
#17 = DIRECTION ( 'NONE',  ( -0.000000000000000000, -1.000000000000000000, -0.000000000000000000 ) ) ;
#18 = ORIENTED_EDGE ( 'NONE', *, *, #767, .F. ) ;
#19 = CARTESIAN_POINT ( 'NONE',  ( 15.00000000000000000, 0.000000000000000000, 1.874999999999998890 ) ) ;
#20 = VECTOR ( 'NONE', #508, 1000.000000000000000 ) ;
#21 = ADVANCED_FACE ( 'NONE', ( #112 ), #362, .T. ) ;
#22 = DIRECTION ( 'NONE',  ( 0.000000000000000000, 0.000000000000000000, 1.000000000000000000 ) ) ;
#23 = CARTESIAN_POINT ( 'NONE',  ( 120.0000000000000000, 6.400000000000000355, 0.000000000000000000 ) ) ;
#24 = ORIENTED_EDGE ( 'NONE', *, *, #39, .F. ) ;
#25 = APPLICATION_PROTOCOL_DEFINITION ( 'draft international standard', 'automotive_design', 1998, #273 ) ;
#26 = CARTESIAN_POINT ( 'NONE',  ( 5.000000000000000000, 6.400000000000000355, 4.125000000000000000 ) ) ;
#27 = LINE ( 'NONE', #271, #33 ) ;
#28 = VERTEX_POINT ( 'NONE', #505 ) ;
#29 = CARTESIAN_POINT ( 'NONE',  ( 70.00000000000000000, 6.400000000000000355, 1.301042606982605321E-15 ) ) ;
#30 = FACE_OUTER_BOUND ( 'NONE', #728, .T. ) ;
#31 = ORIENTED_EDGE ( 'NONE', *, *, #628, .F. ) ;
#32 = SHAPE_DEFINITION_REPRESENTATION ( #717, #602 ) ;
#33 = VECTOR ( 'NONE', #515, 1000.000000000000000 ) ;
#34 = CARTESIAN_POINT ( 'NONE',  ( 114.9999999999999858, 6.400000000000000355, 4.125000000000000000 ) ) ;
#35 = DIRECTION ( 'NONE',  ( 0.000000000000000000, 0.000000000000000000, 1.000000000000000000 ) ) ;
#36 = DIRECTION ( 'NONE',  ( -0.000000000000000000, -1.000000000000000000, -0.000000000000000000 ) ) ;
#37 = EDGE_LOOP ( 'NONE', ( #359, #24, #288, #482 ) ) ;
#38 = VECTOR ( 'NONE', #670, 1000.000000000000000 ) ;
#39 = EDGE_CURVE ( 'NONE', #28, #279, #186, .T. ) ;
#40 = FACE_OUTER_BOUND ( 'NONE', #145, .T. ) ;
#41 = ORIENTED_EDGE ( 'NONE', *, *, #134, .T. ) ;
#42 = DIRECTION ( 'NONE',  ( 1.128925512100531492E-15, 0.000000000000000000, 1.000000000000000000 ) ) ;
#43 = DIRECTION ( 'NONE',  ( -1.000000000000000000, 0.000000000000000000, 1.128925512100531492E-15 ) ) ;
#44 = VERTEX_POINT ( 'NONE', #684 ) ;
#45 = LINE ( 'NONE', #712, #333 ) ;
#46 = EDGE_CURVE ( 'NONE', #106, #607, #750, .T. ) ;
#47 = ORIENTED_EDGE ( 'NONE', *, *, #366, .F. ) ;
#48 = ORIENTED_EDGE ( 'NONE', *, *, #117, .F. ) ;
#49 = VECTOR ( 'NONE', #36, 1000.000000000000000 ) ;
#50 = CIRCLE ( 'NONE', #667, 1.125000000000000888 ) ;
#51 = CARTESIAN_POINT ( 'NONE',  ( 0.000000000000000000, -2.000000000000000000, 0.000000000000000000 ) ) ;
#52 = DIRECTION ( 'NONE',  ( 0.000000000000000000, 0.000000000000000000, 1.000000000000000000 ) ) ;
#53 = DIRECTION ( 'NONE',  ( 1.000000000000000000, -0.000000000000000000, -3.469446951953613696E-16 ) ) ;
#54 = AXIS2_PLACEMENT_3D ( 'NONE', #326, #461, #701 ) ;
#55 = EDGE_CURVE ( 'NONE', #250, #497, #137, .T. ) ;
#56 = ORIENTED_EDGE ( 'NONE', *, *, #72, .F. ) ;
#57 = CARTESIAN_POINT ( 'NONE',  ( 65.00000000000000000, 6.400000000000000355, 3.000000000000000444 ) ) ;
#58 = ORIENTED_EDGE ( 'NONE', *, *, #81, .F. ) ;
#59 = PLANE ( 'NONE',  #299 ) ;
#60 = ORIENTED_EDGE ( 'NONE', *, *, #484, .F. ) ;
#61 = AXIS2_PLACEMENT_3D ( 'NONE', #719, #597, #236 ) ;
#62 = MECHANICAL_DESIGN_GEOMETRIC_PRESENTATION_REPRESENTATION (  '', ( #460 ), #779 ) ;
#63 = DIRECTION ( 'NONE',  ( 0.000000000000000000, 0.000000000000000000, -1.000000000000000000 ) ) ;
#64 = DIRECTION ( 'NONE',  ( -0.000000000000000000, -1.000000000000000000, -0.000000000000000000 ) ) ;
#65 = EDGE_LOOP ( 'NONE', ( #58, #412, #344, #47 ) ) ;
#66 = DIRECTION ( 'NONE',  ( 0.000000000000000000, 0.000000000000000000, 1.000000000000000000 ) ) ;
#67 = CYLINDRICAL_SURFACE ( 'NONE', #109, 1.124999999999998002 ) ;
#68 = AXIS2_PLACEMENT_3D ( 'NONE', #183, #119, #434 ) ;
#69 = VERTEX_POINT ( 'NONE', #500 ) ;
#70 = CARTESIAN_POINT ( 'NONE',  ( 65.00000000000000000, 6.400000000000000355, 3.000000000000000444 ) ) ;
#71 = FACE_OUTER_BOUND ( 'NONE', #736, .T. ) ;
#72 = EDGE_CURVE ( 'NONE', #354, #588, #687, .T. ) ;
#73 = ORIENTED_EDGE ( 'NONE', *, *, #754, .T. ) ;
#74 = DIRECTION ( 'NONE',  ( -0.000000000000000000, -1.000000000000000000, -0.000000000000000000 ) ) ;
#75 = AXIS2_PLACEMENT_3D ( 'NONE', #10, #190, #706 ) ;
#76 = EDGE_LOOP ( 'NONE', ( #73, #31, #711, #548 ) ) ;
#77 = PLANE ( 'NONE',  #540 ) ;
#78 = CARTESIAN_POINT ( 'NONE',  ( 54.99999999999999289, -2.000000000000000000, 3.000000000000000444 ) ) ;
#79 = PLANE ( 'NONE',  #504 ) ;
#80 = ORIENTED_EDGE ( 'NONE', *, *, #90, .F. ) ;
#81 = EDGE_CURVE ( 'NONE', #596, #231, #495, .T. ) ;
#82 = DIRECTION ( 'NONE',  ( 0.000000000000000000, 0.000000000000000000, 1.000000000000000000 ) ) ;
#83 = DIRECTION ( 'NONE',  ( 0.000000000000000000, 0.000000000000000000, 1.000000000000000000 ) ) ;
#84 = ORIENTED_EDGE ( 'NONE', *, *, #363, .F. ) ;
#85 = DIRECTION ( 'NONE',  ( 0.000000000000000000, 0.000000000000000000, -1.000000000000000000 ) ) ;
#86 = AXIS2_PLACEMENT_3D ( 'NONE', #180, #388, #550 ) ;
#87 = CIRCLE ( 'NONE', #435, 1.125000000000000222 ) ;
#88 = ORIENTED_EDGE ( 'NONE', *, *, #566, .F. ) ;
#89 = CARTESIAN_POINT ( 'NONE',  ( 54.99999999999999289, 6.400000000000000355, 3.000000000000000444 ) ) ;
#90 = EDGE_CURVE ( 'NONE', #588, #242, #195, .T. ) ;
#91 = ORIENTED_EDGE ( 'NONE', *, *, #177, .T. ) ;
#92 = AXIS2_PLACEMENT_3D ( 'NONE', #524, #763, #696 ) ;
#93 = AXIS2_PLACEMENT_3D ( 'NONE', #552, #314, #66 ) ;
#94 = CARTESIAN_POINT ( 'NONE',  ( 15.00000000000000000, 0.000000000000000000, 4.125000000000000888 ) ) ;
#95 = EDGE_CURVE ( 'NONE', #235, #44, #244, .T. ) ;
#96 = EDGE_LOOP ( 'NONE', ( #468, #571 ) ) ;
#97 =( NAMED_UNIT ( * ) SI_UNIT ( $, .STERADIAN. ) SOLID_ANGLE_UNIT ( ) );
#98 = DIRECTION ( 'NONE',  ( 1.000000000000000000, 0.000000000000000000, 0.000000000000000000 ) ) ;
#99 = DIRECTION ( 'NONE',  ( 0.000000000000000000, 1.000000000000000000, -0.000000000000000000 ) ) ;
#100 = AXIS2_PLACEMENT_3D ( 'NONE', #572, #346, #697 ) ;
#101 = EDGE_LOOP ( 'NONE', ( #672, #668, #84, #219 ) ) ;
#102 = DIRECTION ( 'NONE',  ( -0.000000000000000000, -1.000000000000000000, -0.000000000000000000 ) ) ;
#103 = ORIENTED_EDGE ( 'NONE', *, *, #462, .F. ) ;
#104 = VERTEX_POINT ( 'NONE', #431 ) ;
#105 = DIRECTION ( 'NONE',  ( -0.000000000000000000, -1.000000000000000000, -0.000000000000000000 ) ) ;
#106 = VERTEX_POINT ( 'NONE', #312 ) ;
#107 = CARTESIAN_POINT ( 'NONE',  ( 15.00000000000000000, 6.400000000000000355, 3.000000000000000000 ) ) ;
#108 = VERTEX_POINT ( 'NONE', #437 ) ;
#109 = AXIS2_PLACEMENT_3D ( 'NONE', #627, #557, #553 ) ;
#110 = PRESENTATION_LAYER_ASSIGNMENT (  '', '', ( #460 ) ) ;
#111 = CARTESIAN_POINT ( 'NONE',  ( 0.000000000000000000, 6.400000000000000355, 0.000000000000000000 ) ) ;
#112 = FACE_OUTER_BOUND ( 'NONE', #143, .T. ) ;
#113 = ADVANCED_FACE ( 'NONE', ( #176 ), #613, .T. ) ;
#114 = ORIENTED_EDGE ( 'NONE', *, *, #264, .F. ) ;
#115 = DIRECTION ( 'NONE',  ( 1.128925512100531492E-15, 0.000000000000000000, 1.000000000000000000 ) ) ;
#116 =( NAMED_UNIT ( * ) SI_UNIT ( $, .STERADIAN. ) SOLID_ANGLE_UNIT ( ) );
#117 = EDGE_CURVE ( 'NONE', #122, #355, #589, .T. ) ;
#118 = ORIENTED_EDGE ( 'NONE', *, *, #683, .F. ) ;
#119 = DIRECTION ( 'NONE',  ( -1.301042606982605567E-16, 0.000000000000000000, -1.000000000000000000 ) ) ;
#120 = CARTESIAN_POINT ( 'NONE',  ( 0.000000000000000000, 0.000000000000000000, 0.000000000000000000 ) ) ;
#121 = DIRECTION ( 'NONE',  ( -0.000000000000000000, -1.000000000000000000, -0.000000000000000000 ) ) ;
#122 = VERTEX_POINT ( 'NONE', #324 ) ;
#123 = LINE ( 'NONE', #9, #20 ) ;
#124 = CYLINDRICAL_SURFACE ( 'NONE', #199, 1.124999999999998002 ) ;
#125 = CARTESIAN_POINT ( 'NONE',  ( 105.0000000000000000, 0.000000000000000000, 3.000000000000000000 ) ) ;
#126 = VERTEX_POINT ( 'NONE', #488 ) ;
#127 = CARTESIAN_POINT ( 'NONE',  ( 105.0000000000000000, 6.400000000000000355, 4.125000000000000888 ) ) ;
#128 = EDGE_CURVE ( 'NONE', #538, #69, #598, .T. ) ;
#129 = CARTESIAN_POINT ( 'NONE',  ( 15.00000000000000000, 6.400000000000000355, 3.000000000000000000 ) ) ;
#130 = FACE_OUTER_BOUND ( 'NONE', #37, .T. ) ;
#131 = ORIENTED_EDGE ( 'NONE', *, *, #95, .T. ) ;
#132 = CARTESIAN_POINT ( 'NONE',  ( 54.99999999999999289, 6.400000000000000355, 4.124999999999998224 ) ) ;
#133 = DIRECTION ( 'NONE',  ( -0.000000000000000000, -1.000000000000000000, -0.000000000000000000 ) ) ;
#134 = EDGE_CURVE ( 'NONE', #175, #760, #239, .T. ) ;
#135 = ORIENTED_EDGE ( 'NONE', *, *, #209, .T. ) ;
#136 = LINE ( 'NONE', #132, #464 ) ;
#137 = LINE ( 'NONE', #428, #370 ) ;
#138 = EDGE_CURVE ( 'NONE', #279, #126, #732, .T. ) ;
#139 = LINE ( 'NONE', #506, #325 ) ;
#140 = ORIENTED_EDGE ( 'NONE', *, *, #525, .T. ) ;
#141 = DIRECTION ( 'NONE',  ( -0.000000000000000000, -1.000000000000000000, -0.000000000000000000 ) ) ;
#142 = DIRECTION ( 'NONE',  ( 0.000000000000000000, 0.000000000000000000, -1.000000000000000000 ) ) ;
#143 = EDGE_LOOP ( 'NONE', ( #585, #427, #341, #489 ) ) ;
#144 = DIRECTION ( 'NONE',  ( 0.000000000000000000, 1.000000000000000000, 0.000000000000000000 ) ) ;
#145 = EDGE_LOOP ( 'NONE', ( #773, #738, #164, #8 ) ) ;
#146 = ADVANCED_FACE ( 'NONE', ( #674 ), #124, .F. ) ;
#147 = DIRECTION ( 'NONE',  ( -0.000000000000000000, -1.000000000000000000, -0.000000000000000000 ) ) ;
#148 = VECTOR ( 'NONE', #248, 1000.000000000000000 ) ;
#149 = AXIS2_PLACEMENT_3D ( 'NONE', #352, #774, #483 ) ;
#150 = ORIENTED_EDGE ( 'NONE', *, *, #90, .T. ) ;
#151 = ADVANCED_FACE ( 'NONE', ( #71 ), #67, .F. ) ;
#152 = PLANE ( 'NONE',  #319 ) ;
#153 = CARTESIAN_POINT ( 'NONE',  ( 5.000000000000000000, 6.400000000000000355, 3.000000000000000000 ) ) ;
#154 = EDGE_LOOP ( 'NONE', ( #757, #653, #420, #5 ) ) ;
#155 = AXIS2_PLACEMENT_3D ( 'NONE', #278, #759, #450 ) ;
#156 = DIRECTION ( 'NONE',  ( -0.000000000000000000, -1.000000000000000000, -0.000000000000000000 ) ) ;
#157 = EDGE_CURVE ( 'NONE', #310, #106, #212, .T. ) ;
#158 = ORIENTED_EDGE ( 'NONE', *, *, #264, .T. ) ;
#159 = DIRECTION ( 'NONE',  ( -0.000000000000000000, -1.000000000000000000, -0.000000000000000000 ) ) ;
#160 = AXIS2_PLACEMENT_3D ( 'NONE', #470, #43, #115 ) ;
#161 = ORIENTED_EDGE ( 'NONE', *, *, #157, .F. ) ;
#162 = AXIS2_PLACEMENT_3D ( 'NONE', #111, #725, #657 ) ;
#163 = DIRECTION ( 'NONE',  ( 0.000000000000000000, 1.000000000000000000, -0.000000000000000000 ) ) ;
#164 = ORIENTED_EDGE ( 'NONE', *, *, #366, .T. ) ;
#165 = FACE_OUTER_BOUND ( 'NONE', #101, .T. ) ;
#166 = VECTOR ( 'NONE', #475, 1000.000000000000000 ) ;
#167 = ORIENTED_EDGE ( 'NONE', *, *, #446, .T. ) ;
#168 = LINE ( 'NONE', #727, #606 ) ;
#169 = CARTESIAN_POINT ( 'NONE',  ( 65.00000000000000000, -2.000000000000000000, 3.000000000000000444 ) ) ;
#170 = ADVANCED_FACE ( 'NONE', ( #517 ), #586, .T. ) ;
#171 = ORIENTED_EDGE ( 'NONE', *, *, #234, .T. ) ;
#172 = VECTOR ( 'NONE', #522, 1000.000000000000000 ) ;
#173 = CARTESIAN_POINT ( 'NONE',  ( 54.99999999999999289, -2.000000000000000000, 4.124999999999998224 ) ) ;
#174 = EDGE_CURVE ( 'NONE', #457, #439, #636, .T. ) ;
#175 = VERTEX_POINT ( 'NONE', #576 ) ;
#176 = FACE_OUTER_BOUND ( 'NONE', #65, .T. ) ;
#177 = EDGE_CURVE ( 'NONE', #250, #457, #184, .T. ) ;
#178 = EDGE_LOOP ( 'NONE', ( #318, #385 ) ) ;
#179 =( LENGTH_UNIT ( ) NAMED_UNIT ( * ) SI_UNIT ( .MILLI., .METRE. ) );
#180 = CARTESIAN_POINT ( 'NONE',  ( 65.00000000000000000, -2.000000000000000000, 3.000000000000000444 ) ) ;
#181 = DIRECTION ( 'NONE',  ( 0.000000000000000000, -0.000000000000000000, -1.000000000000000000 ) ) ;
#182 = EDGE_LOOP ( 'NONE', ( #267, #114, #402, #414 ) ) ;
#183 = CARTESIAN_POINT ( 'NONE',  ( 1.301042606982606110E-15, -2.000000000000000000, 10.00000000000000355 ) ) ;
#184 = CIRCLE ( 'NONE', #100, 1.125000000000000222 ) ;
#185 = AXIS2_PLACEMENT_3D ( 'NONE', #356, #466, #52 ) ;
#186 = LINE ( 'NONE', #679, #38 ) ;
#187 = SURFACE_STYLE_USAGE ( .BOTH. , #716 ) ;
#188 = ORIENTED_EDGE ( 'NONE', *, *, #217, .T. ) ;
#189 = FACE_BOUND ( 'NONE', #642, .T. ) ;
#190 = DIRECTION ( 'NONE',  ( -0.000000000000000000, -1.000000000000000000, -0.000000000000000000 ) ) ;
#191 = VECTOR ( 'NONE', #673, 1000.000000000000000 ) ;
#192 = ORIENTED_EDGE ( 'NONE', *, *, #467, .F. ) ;
#193 = FACE_OUTER_BOUND ( 'NONE', #154, .T. ) ;
#194 = EDGE_CURVE ( 'NONE', #596, #262, #265, .T. ) ;
#195 = LINE ( 'NONE', #383, #148 ) ;
#196 = ORIENTED_EDGE ( 'NONE', *, *, #317, .F. ) ;
#197 = CARTESIAN_POINT ( 'NONE',  ( 0.000000000000000000, 0.000000000000000000, 0.000000000000000000 ) ) ;
#198 = CARTESIAN_POINT ( 'NONE',  ( 54.99999999999999289, -2.000000000000000000, 3.000000000000000444 ) ) ;
#199 = AXIS2_PLACEMENT_3D ( 'NONE', #445, #374, #619 ) ;
#200 = DIRECTION ( 'NONE',  ( 0.000000000000000000, 0.000000000000000000, -1.000000000000000000 ) ) ;
#201 = ORIENTED_EDGE ( 'NONE', *, *, #411, .F. ) ;
#202 = CYLINDRICAL_SURFACE ( 'NONE', #654, 1.125000000000000444 ) ;
#203 = DIRECTION ( 'NONE',  ( 0.000000000000000000, 1.000000000000000000, 0.000000000000000000 ) ) ;
#204 = VECTOR ( 'NONE', #610, 1000.000000000000000 ) ;
#205 = CARTESIAN_POINT ( 'NONE',  ( -1.128925512100531492E-14, -2.000000000000000000, 10.00000000000000000 ) ) ;
#206 = ORIENTED_EDGE ( 'NONE', *, *, #234, .F. ) ;
#207 = CARTESIAN_POINT ( 'NONE',  ( 70.00000000000000000, 6.400000000000000355, 10.00000000000000178 ) ) ;
#208 = ORIENTED_EDGE ( 'NONE', *, *, #55, .T. ) ;
#209 = EDGE_CURVE ( 'NONE', #28, #294, #409, .T. ) ;
#210 = FACE_OUTER_BOUND ( 'NONE', #332, .T. ) ;
#211 = CARTESIAN_POINT ( 'NONE',  ( 15.00000000000000000, 6.400000000000000355, 1.874999999999998890 ) ) ;
#212 = CIRCLE ( 'NONE', #75, 1.125000000000000222 ) ;
#213 = AXIS2_PLACEMENT_3D ( 'NONE', #604, #380, #741 ) ;
#214 = FACE_OUTER_BOUND ( 'NONE', #656, .T. ) ;
#215 = ORIENTED_EDGE ( 'NONE', *, *, #601, .F. ) ;
#216 = CARTESIAN_POINT ( 'NONE',  ( 5.000000000000000000, 6.400000000000000355, 3.000000000000000000 ) ) ;
#217 = EDGE_CURVE ( 'NONE', #594, #246, #12, .T. ) ;
#218 = FILL_AREA_STYLE_COLOUR ( '', #295 ) ;
#219 = ORIENTED_EDGE ( 'NONE', *, *, #353, .T. ) ;
#220 = VECTOR ( 'NONE', #694, 1000.000000000000000 ) ;
#221 = CYLINDRICAL_SURFACE ( 'NONE', #703, 1.125000000000001110 ) ;
#222 = ADVANCED_FACE ( 'NONE', ( #768 ), #393, .T. ) ;
#223 = DIRECTION ( 'NONE',  ( -0.000000000000000000, -1.000000000000000000, -0.000000000000000000 ) ) ;
#224 = FILL_AREA_STYLE ('',( #218 ) ) ;
#225 = VECTOR ( 'NONE', #286, 1000.000000000000000 ) ;
#226 = EDGE_LOOP ( 'NONE', ( #1, #734 ) ) ;
#227 = VECTOR ( 'NONE', #330, 1000.000000000000000 ) ;
#228 = CARTESIAN_POINT ( 'NONE',  ( 120.0000000000000142, -2.000000000000000000, 10.00000000000000000 ) ) ;
#229 = PLANE ( 'NONE',  #149 ) ;
#230 = UNCERTAINTY_MEASURE_WITH_UNIT (LENGTH_MEASURE( 1.000000000000000082E-05 ), #179, 'distance_accuracy_value', 'NONE');
#231 = VERTEX_POINT ( 'NONE', #211 ) ;
#232 = PRODUCT_DEFINITION_FORMATION_WITH_SPECIFIED_SOURCE ( 'ANY', '', #410, .NOT_KNOWN. ) ;
#233 = CARTESIAN_POINT ( 'NONE',  ( 49.99999999999999289, 0.000000000000000000, 1.301042606982605321E-15 ) ) ;
#234 = EDGE_CURVE ( 'NONE', #457, #250, #458, .T. ) ;
#235 = VERTEX_POINT ( 'NONE', #581 ) ;
#236 = DIRECTION ( 'NONE',  ( 0.000000000000000000, 0.000000000000000000, -1.000000000000000000 ) ) ;
#237 = DIRECTION ( 'NONE',  ( 0.000000000000000000, 0.000000000000000000, -1.000000000000000000 ) ) ;
#238 = VERTEX_POINT ( 'NONE', #329 ) ;
#239 = CIRCLE ( 'NONE', #536, 1.125000000000000888 ) ;
#240 = EDGE_CURVE ( 'NONE', #355, #122, #526, .T. ) ;
#241 = DIRECTION ( 'NONE',  ( 0.000000000000000000, 1.000000000000000000, -0.000000000000000000 ) ) ;
#242 = VERTEX_POINT ( 'NONE', #640 ) ;
#243 = CARTESIAN_POINT ( 'NONE',  ( 0.000000000000000000, -2.000000000000000000, 0.000000000000000000 ) ) ;
#244 = LINE ( 'NONE', #120, #306 ) ;
#245 = CARTESIAN_POINT ( 'NONE',  ( 5.000000000000000000, 0.000000000000000000, 4.125000000000000000 ) ) ;
#246 = VERTEX_POINT ( 'NONE', #459 ) ;
#247 = DIRECTION ( 'NONE',  ( 0.000000000000000000, 0.000000000000000000, 1.000000000000000000 ) ) ;
#248 = DIRECTION ( 'NONE',  ( -0.000000000000000000, -1.000000000000000000, -0.000000000000000000 ) ) ;
#249 = DIRECTION ( 'NONE',  ( 0.000000000000000000, 0.000000000000000000, 1.000000000000000000 ) ) ;
#250 = VERTEX_POINT ( 'NONE', #26 ) ;
#251 = LINE ( 'NONE', #745, #649 ) ;
#252 = VECTOR ( 'NONE', #141, 1000.000000000000000 ) ;
#253 = AXIS2_PLACEMENT_3D ( 'NONE', #316, #544, #181 ) ;
#254 = DIRECTION ( 'NONE',  ( 0.000000000000000000, 0.000000000000000000, 1.000000000000000000 ) ) ;
#255 = CARTESIAN_POINT ( 'NONE',  ( 120.0000000000000142, -2.000000000000000000, 10.00000000000000000 ) ) ;
#256 = EDGE_LOOP ( 'NONE', ( #630, #744, #776, #447 ) ) ;
#257 = DIRECTION ( 'NONE',  ( -1.000000000000000000, 0.000000000000000000, 1.301042606982605074E-16 ) ) ;
#258 = EDGE_CURVE ( 'NONE', #310, #104, #463, .T. ) ;
#259 = DIRECTION ( 'NONE',  ( -1.128925512100531492E-15, 0.000000000000000000, 1.000000000000000000 ) ) ;
#260 = AXIS2_PLACEMENT_3D ( 'NONE', #153, #17, #142 ) ;
#261 = CARTESIAN_POINT ( 'NONE',  ( 15.00000000000000000, 6.400000000000000355, 4.125000000000000888 ) ) ;
#262 = VERTEX_POINT ( 'NONE', #94 ) ;
#263 = DIRECTION ( 'NONE',  ( -0.000000000000000000, -1.000000000000000000, -0.000000000000000000 ) ) ;
#264 = EDGE_CURVE ( 'NONE', #551, #235, #268, .T. ) ;
#265 = LINE ( 'NONE', #283, #252 ) ;
#266 = DIRECTION ( 'NONE',  ( 0.000000000000000000, 1.000000000000000000, -0.000000000000000000 ) ) ;
#267 = ORIENTED_EDGE ( 'NONE', *, *, #95, .F. ) ;
#268 = LINE ( 'NONE', #514, #172 ) ;
#269 = CARTESIAN_POINT ( 'NONE',  ( 114.9999999999999858, 0.000000000000000000, 3.000000000000000000 ) ) ;
#270 = CIRCLE ( 'NONE', #336, 1.124999999999998002 ) ;
#271 = CARTESIAN_POINT ( 'NONE',  ( -1.128925512100531492E-14, -2.000000000000000000, 10.00000000000000000 ) ) ;
#272 = ORIENTED_EDGE ( 'NONE', *, *, #781, .F. ) ;
#273 = APPLICATION_CONTEXT ( 'automotive_design' ) ;
#274 = FACE_OUTER_BOUND ( 'NONE', #226, .T. ) ;
#275 = DIRECTION ( 'NONE',  ( 0.000000000000000000, 0.000000000000000000, 1.000000000000000000 ) ) ;
#276 = EDGE_CURVE ( 'NONE', #126, #322, #652, .T. ) ;
#277 = AXIS2_PLACEMENT_3D ( 'NONE', #444, #377, #440 ) ;
#278 = CARTESIAN_POINT ( 'NONE',  ( 5.000000000000000000, 0.000000000000000000, 3.000000000000000000 ) ) ;
#279 = VERTEX_POINT ( 'NONE', #207 ) ;
#280 = DIRECTION ( 'NONE',  ( 0.000000000000000000, 0.000000000000000000, 1.000000000000000000 ) ) ;
#281 =( NAMED_UNIT ( * ) PLANE_ANGLE_UNIT ( ) SI_UNIT ( $, .RADIAN. ) );
#282 = PLANE ( 'NONE',  #401 ) ;
#283 = CARTESIAN_POINT ( 'NONE',  ( 15.00000000000000000, 6.400000000000000355, 4.125000000000000888 ) ) ;
#284 = VECTOR ( 'NONE', #632, 1000.000000000000000 ) ;
#285 = PRODUCT_DEFINITION ( 'UNKNOWN', '', #232, #424 ) ;
#286 = DIRECTION ( 'NONE',  ( 0.000000000000000000, 1.000000000000000000, 0.000000000000000000 ) ) ;
#287 = LINE ( 'NONE', #479, #721 ) ;
#288 = ORIENTED_EDGE ( 'NONE', *, *, #660, .T. ) ;
#289 = CARTESIAN_POINT ( 'NONE',  ( 5.000000000000000000, 0.000000000000000000, 3.000000000000000000 ) ) ;
#290 = DIRECTION ( 'NONE',  ( 1.128925512100531492E-15, 0.000000000000000000, 1.000000000000000000 ) ) ;
#291 = PLANE ( 'NONE',  #755 ) ;
#292 = ADVANCED_FACE ( 'NONE', ( #274 ), #152, .T. ) ;
#293 = VECTOR ( 'NONE', #290, 1000.000000000000000 ) ;
#294 = VERTEX_POINT ( 'NONE', #452 ) ;
#295 = COLOUR_RGB ( '',0.7921568627450980005, 0.8196078431372548767, 0.9333333333333333481 ) ;
#296 = CARTESIAN_POINT ( 'NONE',  ( 120.0000000000000000, -2.000000000000000000, 0.000000000000000000 ) ) ;
#297 = CARTESIAN_POINT ( 'NONE',  ( 120.0000000000000000, 0.000000000000000000, 0.000000000000000000 ) ) ;
#298 = CARTESIAN_POINT ( 'NONE',  ( 5.000000000000000000, 0.000000000000000000, 1.874999999999999778 ) ) ;
#299 = AXIS2_PLACEMENT_3D ( 'NONE', #197, #382, #682 ) ;
#300 = FACE_BOUND ( 'NONE', #634, .T. ) ;
#301 = EDGE_LOOP ( 'NONE', ( #691, #208, #351, #579 ) ) ;
#302 = ADVANCED_FACE ( 'NONE', ( #692 ), #202, .T. ) ;
#303 = DIRECTION ( 'NONE',  ( 0.000000000000000000, 0.000000000000000000, 1.000000000000000000 ) ) ;
#304 = ORIENTED_EDGE ( 'NONE', *, *, #584, .T. ) ;
#305 = FACE_BOUND ( 'NONE', #381, .T. ) ;
#306 = VECTOR ( 'NONE', #259, 1000.000000000000000 ) ;
#307 = EDGE_LOOP ( 'NONE', ( #564, #722 ) ) ;
#308 = DIRECTION ( 'NONE',  ( 0.000000000000000000, 1.000000000000000000, -0.000000000000000000 ) ) ;
#309 = DIRECTION ( 'NONE',  ( 0.000000000000000000, 0.000000000000000000, -1.000000000000000000 ) ) ;
#310 = VERTEX_POINT ( 'NONE', #335 ) ;
#311 = DIRECTION ( 'NONE',  ( 0.000000000000000000, 1.000000000000000000, -0.000000000000000000 ) ) ;
#312 = CARTESIAN_POINT ( 'NONE',  ( 114.9999999999999858, 6.400000000000000355, 1.874999999999999778 ) ) ;
#313 = ORIENTED_EDGE ( 'NONE', *, *, #240, .F. ) ;
#314 = DIRECTION ( 'NONE',  ( 0.000000000000000000, 1.000000000000000000, -0.000000000000000000 ) ) ;
#315 = CARTESIAN_POINT ( 'NONE',  ( 114.9999999999999858, 6.400000000000000355, 1.874999999999999778 ) ) ;
#316 = CARTESIAN_POINT ( 'NONE',  ( 0.000000000000000000, 6.400000000000000355, 0.000000000000000000 ) ) ;
#317 = EDGE_CURVE ( 'NONE', #594, #122, #342, .T. ) ;
#318 = ORIENTED_EDGE ( 'NONE', *, *, #462, .T. ) ;
#319 = AXIS2_PLACEMENT_3D ( 'NONE', #449, #510, #22 ) ;
#320 = EDGE_CURVE ( 'NONE', #69, #538, #629, .T. ) ;
#321 = CYLINDRICAL_SURFACE ( 'NONE', #365, 1.124999999999998002 ) ;
#322 = VERTEX_POINT ( 'NONE', #595 ) ;
#323 = DIRECTION ( 'NONE',  ( 0.000000000000000000, 0.000000000000000000, 1.000000000000000000 ) ) ;
#324 = CARTESIAN_POINT ( 'NONE',  ( 54.99999999999999289, -2.000000000000000000, 1.875000000000002442 ) ) ;
#325 = VECTOR ( 'NONE', #391, 1000.000000000000000 ) ;
#326 = CARTESIAN_POINT ( 'NONE',  ( 105.0000000000000000, 6.400000000000000355, 3.000000000000000000 ) ) ;
#327 = EDGE_LOOP ( 'NONE', ( #762, #726, #451, #131 ) ) ;
#328 = ADVANCED_FACE ( 'NONE', ( #476 ), #413, .T. ) ;
#329 = CARTESIAN_POINT ( 'NONE',  ( 65.00000000000000000, 6.400000000000000355, 4.124999999999998224 ) ) ;
#330 = DIRECTION ( 'NONE',  ( 1.000000000000000000, -0.000000000000000000, 0.000000000000000000 ) ) ;
#331 = CARTESIAN_POINT ( 'NONE',  ( 114.9999999999999858, 0.000000000000000000, 1.874999999999999778 ) ) ;
#332 = EDGE_LOOP ( 'NONE', ( #167, #80, #56, #304 ) ) ;
#333 = VECTOR ( 'NONE', #223, 1000.000000000000000 ) ;
#334 = EDGE_CURVE ( 'NONE', #760, #512, #45, .T. ) ;
#335 = CARTESIAN_POINT ( 'NONE',  ( 114.9999999999999858, 6.400000000000000355, 4.125000000000000000 ) ) ;
#336 = AXIS2_PLACEMENT_3D ( 'NONE', #600, #121, #249 ) ;
#337 = CARTESIAN_POINT ( 'NONE',  ( 49.99999999999999289, 6.400000000000000355, 1.301042606982605321E-15 ) ) ;
#338 = EDGE_LOOP ( 'NONE', ( #371, #397, #140, #364 ) ) ;
#339 = FACE_OUTER_BOUND ( 'NONE', #516, .T. ) ;
#340 = DIRECTION ( 'NONE',  ( 0.000000000000000000, 0.000000000000000000, -1.000000000000000000 ) ) ;
#341 = ORIENTED_EDGE ( 'NONE', *, *, #390, .T. ) ;
#342 = LINE ( 'NONE', #761, #643 ) ;
#343 = ADVANCED_FACE ( 'NONE', ( #530 ), #291, .F. ) ;
#344 = ORIENTED_EDGE ( 'NONE', *, *, #411, .T. ) ;
#345 = CARTESIAN_POINT ( 'NONE',  ( 15.00000000000000000, 6.400000000000000355, 3.000000000000000000 ) ) ;
#346 = DIRECTION ( 'NONE',  ( 0.000000000000000000, 1.000000000000000000, -0.000000000000000000 ) ) ;
#347 = AXIS2_PLACEMENT_3D ( 'NONE', #169, #350, #729 ) ;
#348 = PRODUCT_RELATED_PRODUCT_CATEGORY ( 'part', '', ( #410 ) ) ;
#349 = ORIENTED_EDGE ( 'NONE', *, *, #708, .F. ) ;
#350 = DIRECTION ( 'NONE',  ( -0.000000000000000000, -1.000000000000000000, -0.000000000000000000 ) ) ;
#351 = ORIENTED_EDGE ( 'NONE', *, *, #645, .T. ) ;
#352 = CARTESIAN_POINT ( 'NONE',  ( 0.000000000000000000, -2.000000000000000000, 0.000000000000000000 ) ) ;
#353 = EDGE_CURVE ( 'NONE', #453, #108, #782, .T. ) ;
#354 = VERTEX_POINT ( 'NONE', #655 ) ;
#355 = VERTEX_POINT ( 'NONE', #173 ) ;
#356 = CARTESIAN_POINT ( 'NONE',  ( 105.0000000000000000, 0.000000000000000000, 3.000000000000000000 ) ) ;
#357 = ADVANCED_FACE ( 'NONE', ( #165 ), #593, .F. ) ;
#358 = VECTOR ( 'NONE', #704, 1000.000000000000000 ) ;
#359 = ORIENTED_EDGE ( 'NONE', *, *, #487, .T. ) ;
#360 = CIRCLE ( 'NONE', #499, 1.125000000000000222 ) ;
#361 = DIRECTION ( 'NONE',  ( -0.000000000000000000, -1.000000000000000000, -0.000000000000000000 ) ) ;
#362 = CYLINDRICAL_SURFACE ( 'NONE', #742, 1.125000000000001110 ) ;
#363 = EDGE_CURVE ( 'NONE', #453, #501, #421, .T. ) ;
#364 = ORIENTED_EDGE ( 'NONE', *, *, #46, .F. ) ;
#365 = AXIS2_PLACEMENT_3D ( 'NONE', #563, #570, #200 ) ;
#366 = EDGE_CURVE ( 'NONE', #231, #681, #539, .T. ) ;
#367 = ORIENTED_EDGE ( 'NONE', *, *, #334, .T. ) ;
#368 = LINE ( 'NONE', #686, #204 ) ;
#369 = CARTESIAN_POINT ( 'NONE',  ( 114.9999999999999858, 0.000000000000000000, 3.000000000000000000 ) ) ;
#370 = VECTOR ( 'NONE', #568, 1000.000000000000000 ) ;
#371 = ORIENTED_EDGE ( 'NONE', *, *, #566, .T. ) ;
#372 = CARTESIAN_POINT ( 'NONE',  ( 65.00000000000000000, 6.400000000000000355, 1.875000000000002442 ) ) ;
#373 = VECTOR ( 'NONE', #53, 1000.000000000000000 ) ;
#374 = DIRECTION ( 'NONE',  ( -0.000000000000000000, -1.000000000000000000, -0.000000000000000000 ) ) ;
#375 = DIRECTION ( 'NONE',  ( 0.000000000000000000, 1.000000000000000000, 0.000000000000000000 ) ) ;
#376 = EDGE_LOOP ( 'NONE', ( #485, #786, #150, #625, #746, #426, #15, #702 ) ) ;
#377 = DIRECTION ( 'NONE',  ( 0.000000000000000000, 1.000000000000000000, 0.000000000000000000 ) ) ;
#378 = AXIS2_PLACEMENT_3D ( 'NONE', #490, #6, #247 ) ;
#379 = DIRECTION ( 'NONE',  ( -0.000000000000000000, -1.000000000000000000, -0.000000000000000000 ) ) ;
#380 = DIRECTION ( 'NONE',  ( 0.000000000000000000, 1.000000000000000000, 0.000000000000000000 ) ) ;
#381 = EDGE_LOOP ( 'NONE', ( #60, #555 ) ) ;
#382 = DIRECTION ( 'NONE',  ( 0.000000000000000000, 1.000000000000000000, -0.000000000000000000 ) ) ;
#383 = CARTESIAN_POINT ( 'NONE',  ( 49.99999999999999289, 6.400000000000000355, 10.00000000000000178 ) ) ;
#384 = DIRECTION ( 'NONE',  ( 0.000000000000000000, 0.000000000000000000, 1.000000000000000000 ) ) ;
#385 = ORIENTED_EDGE ( 'NONE', *, *, #663, .T. ) ;
#386 = FACE_OUTER_BOUND ( 'NONE', #76, .T. ) ;
#387 = AXIS2_PLACEMENT_3D ( 'NONE', #29, #700, #340 ) ;
#388 = DIRECTION ( 'NONE',  ( -0.000000000000000000, -1.000000000000000000, -0.000000000000000000 ) ) ;
#389 = UNCERTAINTY_MEASURE_WITH_UNIT (LENGTH_MEASURE( 1.000000000000000082E-05 ), #680, 'distance_accuracy_value', 'NONE');
#390 = EDGE_CURVE ( 'NONE', #175, #429, #419, .T. ) ;
#391 = DIRECTION ( 'NONE',  ( 1.000000000000000000, -0.000000000000000000, 0.000000000000000000 ) ) ;
#392 = VERTEX_POINT ( 'NONE', #233 ) ;
#393 = PLANE ( 'NONE',  #387 ) ;
#394 = LINE ( 'NONE', #337, #220 ) ;
#395 = EDGE_LOOP ( 'NONE', ( #529, #135, #587, #620, #215, #158, #658, #465 ) ) ;
#396 = CARTESIAN_POINT ( 'NONE',  ( 5.000000000000000000, 6.400000000000000355, 3.000000000000000000 ) ) ;
#397 = ORIENTED_EDGE ( 'NONE', *, *, #258, .T. ) ;
#398 = AXIS2_PLACEMENT_3D ( 'NONE', #129, #494, #63 ) ;
#399 = DIRECTION ( 'NONE',  ( 0.000000000000000000, 0.000000000000000000, -1.000000000000000000 ) ) ;
#400 = DIRECTION ( 'NONE',  ( -0.000000000000000000, -1.000000000000000000, -0.000000000000000000 ) ) ;
#401 = AXIS2_PLACEMENT_3D ( 'NONE', #527, #98, #399 ) ;
#402 = ORIENTED_EDGE ( 'NONE', *, *, #628, .T. ) ;
#403 = APPLICATION_PROTOCOL_DEFINITION ( 'draft international standard', 'automotive_design', 1998, #720 ) ;
#404 = DIRECTION ( 'NONE',  ( -0.000000000000000000, -1.000000000000000000, -0.000000000000000000 ) ) ;
#405 = ADVANCED_FACE ( 'NONE', ( #715 ), #229, .T. ) ;
#406 = AXIS2_PLACEMENT_3D ( 'NONE', #70, #263, #549 ) ;
#407 = CARTESIAN_POINT ( 'NONE',  ( 0.000000000000000000, -2.000000000000000000, 0.000000000000000000 ) ) ;
#408 = ORIENTED_EDGE ( 'NONE', *, *, #645, .F. ) ;
#409 = LINE ( 'NONE', #648, #547 ) ;
#410 = PRODUCT ( 'SwitchHolders', 'SwitchHolders', '', ( #580 ) ) ;
#411 = EDGE_CURVE ( 'NONE', #262, #681, #560, .T. ) ;
#412 = ORIENTED_EDGE ( 'NONE', *, *, #194, .T. ) ;
#413 = CYLINDRICAL_SURFACE ( 'NONE', #61, 1.125000000000000444 ) ;
#414 = ORIENTED_EDGE ( 'NONE', *, *, #611, .T. ) ;
#415 = DIRECTION ( 'NONE',  ( 0.000000000000000000, 0.000000000000000000, 1.000000000000000000 ) ) ;
#416 = ORIENTED_EDGE ( 'NONE', *, *, #781, .T. ) ;
#417 =( GEOMETRIC_REPRESENTATION_CONTEXT ( 3 ) GLOBAL_UNCERTAINTY_ASSIGNED_CONTEXT ( ( #230 ) ) GLOBAL_UNIT_ASSIGNED_CONTEXT ( ( #179, #281, #97 ) ) REPRESENTATION_CONTEXT ( 'NONE', 'WORKASPACE' ) );
#418 = ADVANCED_FACE ( 'NONE', ( #535 ), #480, .T. ) ;
#419 = LINE ( 'NONE', #665, #743 ) ;
#420 = ORIENTED_EDGE ( 'NONE', *, *, #639, .F. ) ;
#421 = LINE ( 'NONE', #659, #293 ) ;
#422 = ORIENTED_EDGE ( 'NONE', *, *, #317, .T. ) ;
#423 = DIRECTION ( 'NONE',  ( 0.000000000000000000, 0.000000000000000000, 1.000000000000000000 ) ) ;
#424 = PRODUCT_DEFINITION_CONTEXT ( 'detailed design', #273, 'design' ) ;
#425 = ADVANCED_FACE ( 'NONE', ( #40 ), #221, .T. ) ;
#426 = ORIENTED_EDGE ( 'NONE', *, *, #754, .F. ) ;
#427 = ORIENTED_EDGE ( 'NONE', *, *, #693, .T. ) ;
#428 = CARTESIAN_POINT ( 'NONE',  ( 5.000000000000000000, 6.400000000000000355, 4.125000000000000000 ) ) ;
#429 = VERTEX_POINT ( 'NONE', #603 ) ;
#430 = ORIENTED_EDGE ( 'NONE', *, *, #320, .T. ) ;
#431 = CARTESIAN_POINT ( 'NONE',  ( 114.9999999999999858, 0.000000000000000000, 4.125000000000000000 ) ) ;
#432 = CLOSED_SHELL ( 'NONE', ( #146, #546, #328, #554, #113, #302, #775, #343, #787, #749, #405, #592, #14, #425, #418, #503, #531, #151, #688, #357, #170, #605, #21, #292, #222, #496 ) ) ;
#433 = ORIENTED_EDGE ( 'NONE', *, *, #708, .T. ) ;
#434 = DIRECTION ( 'NONE',  ( -1.000000000000000000, 0.000000000000000000, 1.301042606982605567E-16 ) ) ;
#435 = AXIS2_PLACEMENT_3D ( 'NONE', #269, #203, #275 ) ;
#436 = EDGE_CURVE ( 'NONE', #429, #512, #537, .T. ) ;
#437 = CARTESIAN_POINT ( 'NONE',  ( 120.0000000000000000, 0.000000000000000000, 0.000000000000000000 ) ) ;
#438 = FACE_OUTER_BOUND ( 'NONE', #521, .T. ) ;
#439 = VERTEX_POINT ( 'NONE', #298 ) ;
#440 = DIRECTION ( 'NONE',  ( 0.000000000000000000, 0.000000000000000000, 1.000000000000000000 ) ) ;
#441 = CIRCLE ( 'NONE', #567, 1.125000000000000222 ) ;
#442 = DIRECTION ( 'NONE',  ( 0.000000000000000000, 0.000000000000000000, 1.000000000000000000 ) ) ;
#443 = ORIENTED_EDGE ( 'NONE', *, *, #577, .F. ) ;
#444 = CARTESIAN_POINT ( 'NONE',  ( 120.0000000000000000, 0.000000000000000000, 0.000000000000000000 ) ) ;
#445 = CARTESIAN_POINT ( 'NONE',  ( 65.00000000000000000, 6.400000000000000355, 3.000000000000000444 ) ) ;
#446 = EDGE_CURVE ( 'NONE', #392, #242, #542, .T. ) ;
#447 = ORIENTED_EDGE ( 'NONE', *, *, #138, .T. ) ;
#448 = LINE ( 'NONE', #618, #748 ) ;
#449 = CARTESIAN_POINT ( 'NONE',  ( 120.0000000000000000, 6.400000000000000355, 0.000000000000000000 ) ) ;
#450 = DIRECTION ( 'NONE',  ( 0.000000000000000000, 0.000000000000000000, 1.000000000000000000 ) ) ;
#451 = ORIENTED_EDGE ( 'NONE', *, *, #519, .F. ) ;
#452 = CARTESIAN_POINT ( 'NONE',  ( 70.00000000000000000, 0.000000000000000000, 0.000000000000000000 ) ) ;
#453 = VERTEX_POINT ( 'NONE', #591 ) ;
#454 = MANIFOLD_SOLID_BREP ( 'Mirror2', #432 ) ;
#455 = DIRECTION ( 'NONE',  ( 0.000000000000000000, 1.000000000000000000, -0.000000000000000000 ) ) ;
#456 = CYLINDRICAL_SURFACE ( 'NONE', #54, 1.125000000000001110 ) ;
#457 = VERTEX_POINT ( 'NONE', #671 ) ;
#458 = CIRCLE ( 'NONE', #513, 1.125000000000000222 ) ;
#459 = CARTESIAN_POINT ( 'NONE',  ( 54.99999999999999289, 6.400000000000000355, 4.124999999999998224 ) ) ;
#460 = STYLED_ITEM ( 'NONE', ( #675 ), #454 ) ;
#461 = DIRECTION ( 'NONE',  ( -0.000000000000000000, -1.000000000000000000, -0.000000000000000000 ) ) ;
#462 = EDGE_CURVE ( 'NONE', #765, #238, #270, .T. ) ;
#463 = LINE ( 'NONE', #34, #689 ) ;
#464 = VECTOR ( 'NONE', #74, 1000.000000000000000 ) ;
#465 = ORIENTED_EDGE ( 'NONE', *, *, #584, .F. ) ;
#466 = DIRECTION ( 'NONE',  ( 0.000000000000000000, 1.000000000000000000, 0.000000000000000000 ) ) ;
#467 = EDGE_CURVE ( 'NONE', #246, #594, #714, .T. ) ;
#468 = ORIENTED_EDGE ( 'NONE', *, *, #117, .T. ) ;
#469 = DIRECTION ( 'NONE',  ( -1.128925512100531492E-15, 0.000000000000000000, 1.000000000000000000 ) ) ;
#470 = CARTESIAN_POINT ( 'NONE',  ( 120.0000000000000000, -2.000000000000000000, 0.000000000000000000 ) ) ;
#471 = AXIS2_PLACEMENT_3D ( 'NONE', #57, #64, #309 ) ;
#472 = SURFACE_STYLE_FILL_AREA ( #224 ) ;
#473 = EDGE_LOOP ( 'NONE', ( #492, #433, #507, #272 ) ) ;
#474 = ORIENTED_EDGE ( 'NONE', *, *, #509, .T. ) ;
#475 = DIRECTION ( 'NONE',  ( 0.000000000000000000, 1.000000000000000000, 0.000000000000000000 ) ) ;
#476 = FACE_OUTER_BOUND ( 'NONE', #338, .T. ) ;
#477 = ORIENTED_EDGE ( 'NONE', *, *, #484, .T. ) ;
#478 = VECTOR ( 'NONE', #42, 1000.000000000000000 ) ;
#479 = CARTESIAN_POINT ( 'NONE',  ( 0.000000000000000000, -2.000000000000000000, 0.000000000000000000 ) ) ;
#480 = PLANE ( 'NONE',  #162 ) ;
#481 = EDGE_LOOP ( 'NONE', ( #88, #161 ) ) ;
#482 = ORIENTED_EDGE ( 'NONE', *, *, #72, .T. ) ;
#483 = DIRECTION ( 'NONE',  ( -1.128925512100531492E-15, 0.000000000000000000, 1.000000000000000000 ) ) ;
#484 = EDGE_CURVE ( 'NONE', #607, #104, #360, .T. ) ;
#485 = ORIENTED_EDGE ( 'NONE', *, *, #138, .F. ) ;
#486 = LINE ( 'NONE', #297, #478 ) ;
#487 = EDGE_CURVE ( 'NONE', #588, #279, #11, .T. ) ;
#488 = CARTESIAN_POINT ( 'NONE',  ( 70.00000000000000000, 0.000000000000000000, 9.999999999999996447 ) ) ;
#489 = ORIENTED_EDGE ( 'NONE', *, *, #436, .T. ) ;
#490 = CARTESIAN_POINT ( 'NONE',  ( 105.0000000000000000, 6.400000000000000355, 3.000000000000000000 ) ) ;
#491 = DIRECTION ( 'NONE',  ( -0.000000000000000000, -1.000000000000000000, -0.000000000000000000 ) ) ;
#492 = ORIENTED_EDGE ( 'NONE', *, *, #663, .F. ) ;
#493 = DIRECTION ( 'NONE',  ( -0.000000000000000000, -1.000000000000000000, -0.000000000000000000 ) ) ;
#494 = DIRECTION ( 'NONE',  ( -0.000000000000000000, -1.000000000000000000, -0.000000000000000000 ) ) ;
#495 = CIRCLE ( 'NONE', #730, 1.125000000000000888 ) ;
#496 = ADVANCED_FACE ( 'NONE', ( #438 ), #4, .F. ) ;
#497 = VERTEX_POINT ( 'NONE', #245 ) ;
#498 = LINE ( 'NONE', #735, #541 ) ;
#499 = AXIS2_PLACEMENT_3D ( 'NONE', #369, #785, #614 ) ;
#500 = CARTESIAN_POINT ( 'NONE',  ( 65.00000000000000000, -2.000000000000000000, 1.875000000000002442 ) ) ;
#501 = VERTEX_POINT ( 'NONE', #255 ) ;
#502 = FACE_OUTER_BOUND ( 'NONE', #327, .T. ) ;
#503 = ADVANCED_FACE ( 'NONE', ( #130, #300, #624 ), #737, .F. ) ;
#504 = AXIS2_PLACEMENT_3D ( 'NONE', #23, #756, #83 ) ;
#505 = CARTESIAN_POINT ( 'NONE',  ( 70.00000000000000000, 6.400000000000000355, 1.301042606982605321E-15 ) ) ;
#506 = CARTESIAN_POINT ( 'NONE',  ( 0.000000000000000000, -2.000000000000000000, 0.000000000000000000 ) ) ;
#507 = ORIENTED_EDGE ( 'NONE', *, *, #128, .T. ) ;
#508 = DIRECTION ( 'NONE',  ( -1.000000000000000000, 0.000000000000000000, 0.000000000000000000 ) ) ;
#509 = EDGE_CURVE ( 'NONE', #512, #429, #13, .T. ) ;
#510 = DIRECTION ( 'NONE',  ( 0.000000000000000000, 1.000000000000000000, 0.000000000000000000 ) ) ;
#511 = CYLINDRICAL_SURFACE ( 'NONE', #260, 1.125000000000000444 ) ;
#512 = VERTEX_POINT ( 'NONE', #582 ) ;
#513 = AXIS2_PLACEMENT_3D ( 'NONE', #216, #455, #82 ) ;
#514 = CARTESIAN_POINT ( 'NONE',  ( 0.000000000000000000, -2.000000000000000000, 0.000000000000000000 ) ) ;
#515 = DIRECTION ( 'NONE',  ( 0.000000000000000000, 1.000000000000000000, 0.000000000000000000 ) ) ;
#516 = EDGE_LOOP ( 'NONE', ( #171, #91 ) ) ;
#517 = FACE_OUTER_BOUND ( 'NONE', #710, .T. ) ;
#518 = CIRCLE ( 'NONE', #783, 1.125000000000000222 ) ;
#519 = EDGE_CURVE ( 'NONE', #235, #392, #569, .T. ) ;
#520 = DIRECTION ( 'NONE',  ( 0.000000000000000000, 0.000000000000000000, 1.000000000000000000 ) ) ;
#521 = EDGE_LOOP ( 'NONE', ( #349, #103, #416, #430 ) ) ;
#522 = DIRECTION ( 'NONE',  ( 0.000000000000000000, 1.000000000000000000, 0.000000000000000000 ) ) ;
#523 = ORIENTED_EDGE ( 'NONE', *, *, #577, .T. ) ;
#524 = CARTESIAN_POINT ( 'NONE',  ( 0.000000000000000000, 0.000000000000000000, 0.000000000000000000 ) ) ;
#525 = EDGE_CURVE ( 'NONE', #104, #607, #87, .T. ) ;
#526 = CIRCLE ( 'NONE', #766, 1.124999999999998002 ) ;
#527 = CARTESIAN_POINT ( 'NONE',  ( 49.99999999999999289, 6.400000000000000355, 1.301042606982605321E-15 ) ) ;
#528 = DIRECTION ( 'NONE',  ( 0.000000000000000000, 0.000000000000000000, 1.000000000000000000 ) ) ;
#529 = ORIENTED_EDGE ( 'NONE', *, *, #660, .F. ) ;
#530 = FACE_OUTER_BOUND ( 'NONE', #395, .T. ) ;
#531 = ADVANCED_FACE ( 'NONE', ( #210 ), #282, .F. ) ;
#532 = DIRECTION ( 'NONE',  ( 1.000000000000000000, 0.000000000000000000, 0.000000000000000000 ) ) ;
#533 = EDGE_CURVE ( 'NONE', #231, #596, #50, .T. ) ;
#534 = DIRECTION ( 'NONE',  ( 0.000000000000000000, 1.000000000000000000, -0.000000000000000000 ) ) ;
#535 = FACE_OUTER_BOUND ( 'NONE', #664, .T. ) ;
#536 = AXIS2_PLACEMENT_3D ( 'NONE', #740, #379, #254 ) ;
#537 = CIRCLE ( 'NONE', #185, 1.125000000000000888 ) ;
#538 = VERTEX_POINT ( 'NONE', #578 ) ;
#539 = LINE ( 'NONE', #770, #599 ) ;
#540 = AXIS2_PLACEMENT_3D ( 'NONE', #243, #311, #323 ) ;
#541 = VECTOR ( 'NONE', #493, 1000.000000000000000 ) ;
#542 = LINE ( 'NONE', #784, #616 ) ;
#543 = DIRECTION ( 'NONE',  ( -0.000000000000000000, -1.000000000000000000, -0.000000000000000000 ) ) ;
#544 = DIRECTION ( 'NONE',  ( 0.000000000000000000, -1.000000000000000000, 0.000000000000000000 ) ) ;
#545 = ORIENTED_EDGE ( 'NONE', *, *, #217, .F. ) ;
#546 = ADVANCED_FACE ( 'NONE', ( #214 ), #456, .T. ) ;
#547 = VECTOR ( 'NONE', #156, 1000.000000000000000 ) ;
#548 = ORIENTED_EDGE ( 'NONE', *, *, #363, .T. ) ;
#549 = DIRECTION ( 'NONE',  ( 0.000000000000000000, 0.000000000000000000, 1.000000000000000000 ) ) ;
#550 = DIRECTION ( 'NONE',  ( 0.000000000000000000, 0.000000000000000000, 1.000000000000000000 ) ) ;
#551 = VERTEX_POINT ( 'NONE', #407 ) ;
#552 = CARTESIAN_POINT ( 'NONE',  ( 15.00000000000000000, 0.000000000000000000, 3.000000000000000000 ) ) ;
#553 = DIRECTION ( 'NONE',  ( 0.000000000000000000, 0.000000000000000000, -1.000000000000000000 ) ) ;
#554 = ADVANCED_FACE ( 'NONE', ( #30 ), #321, .F. ) ;
#555 = ORIENTED_EDGE ( 'NONE', *, *, #525, .F. ) ;
#556 = PLANE ( 'NONE',  #277 ) ;
#557 = DIRECTION ( 'NONE',  ( -0.000000000000000000, -1.000000000000000000, -0.000000000000000000 ) ) ;
#558 = ORIENTED_EDGE ( 'NONE', *, *, #174, .T. ) ;
#559 = FACE_BOUND ( 'NONE', #96, .T. ) ;
#560 = CIRCLE ( 'NONE', #644, 1.125000000000000888 ) ;
#561 = CARTESIAN_POINT ( 'NONE',  ( 49.99999999999999289, 6.400000000000000355, 1.301042606982605321E-15 ) ) ;
#562 = CARTESIAN_POINT ( 'NONE',  ( 0.000000000000000000, 0.000000000000000000, 0.000000000000000000 ) ) ;
#563 = CARTESIAN_POINT ( 'NONE',  ( 54.99999999999999289, 6.400000000000000355, 3.000000000000000444 ) ) ;
#564 = ORIENTED_EDGE ( 'NONE', *, *, #436, .F. ) ;
#565 = FACE_OUTER_BOUND ( 'NONE', #376, .T. ) ;
#566 = EDGE_CURVE ( 'NONE', #106, #310, #441, .T. ) ;
#567 = AXIS2_PLACEMENT_3D ( 'NONE', #641, #651, #520 ) ;
#568 = DIRECTION ( 'NONE',  ( -0.000000000000000000, -1.000000000000000000, -0.000000000000000000 ) ) ;
#569 = LINE ( 'NONE', #562, #227 ) ;
#570 = DIRECTION ( 'NONE',  ( -0.000000000000000000, -1.000000000000000000, -0.000000000000000000 ) ) ;
#571 = ORIENTED_EDGE ( 'NONE', *, *, #240, .T. ) ;
#572 = CARTESIAN_POINT ( 'NONE',  ( 5.000000000000000000, 6.400000000000000355, 3.000000000000000000 ) ) ;
#573 = ORIENTED_EDGE ( 'NONE', *, *, #258, .F. ) ;
#574 = AXIS2_PLACEMENT_3D ( 'NONE', #764, #400, #646 ) ;
#575 = AXIS2_PLACEMENT_3D ( 'NONE', #125, #375, #384 ) ;
#576 = CARTESIAN_POINT ( 'NONE',  ( 105.0000000000000000, 6.400000000000000355, 1.874999999999998890 ) ) ;
#577 = EDGE_CURVE ( 'NONE', #439, #497, #771, .T. ) ;
#578 = CARTESIAN_POINT ( 'NONE',  ( 65.00000000000000000, -2.000000000000000000, 4.124999999999998224 ) ) ;
#579 = ORIENTED_EDGE ( 'NONE', *, *, #174, .F. ) ;
#580 = PRODUCT_CONTEXT ( 'NONE', #720, 'mechanical' ) ;
#581 = CARTESIAN_POINT ( 'NONE',  ( 0.000000000000000000, 0.000000000000000000, 0.000000000000000000 ) ) ;
#582 = CARTESIAN_POINT ( 'NONE',  ( 105.0000000000000000, 0.000000000000000000, 4.125000000000000888 ) ) ;
#583 = CIRCLE ( 'NONE', #378, 1.125000000000000888 ) ;
#584 = EDGE_CURVE ( 'NONE', #354, #392, #394, .T. ) ;
#585 = ORIENTED_EDGE ( 'NONE', *, *, #334, .F. ) ;
#586 = CYLINDRICAL_SURFACE ( 'NONE', #574, 1.125000000000000444 ) ;
#587 = ORIENTED_EDGE ( 'NONE', *, *, #699, .F. ) ;
#588 = VERTEX_POINT ( 'NONE', #690 ) ;
#589 = CIRCLE ( 'NONE', #615, 1.124999999999998002 ) ;
#590 = CARTESIAN_POINT ( 'NONE',  ( 15.00000000000000000, 0.000000000000000000, 3.000000000000000000 ) ) ;
#591 = CARTESIAN_POINT ( 'NONE',  ( 120.0000000000000000, -2.000000000000000000, 0.000000000000000000 ) ) ;
#592 = ADVANCED_FACE ( 'NONE', ( #705 ), #511, .T. ) ;
#593 = PLANE ( 'NONE',  #160 ) ;
#594 = VERTEX_POINT ( 'NONE', #637 ) ;
#595 = CARTESIAN_POINT ( 'NONE',  ( 120.0000000000000142, 0.000000000000000000, 10.00000000000000000 ) ) ;
#596 = VERTEX_POINT ( 'NONE', #261 ) ;
#597 = DIRECTION ( 'NONE',  ( -0.000000000000000000, -1.000000000000000000, -0.000000000000000000 ) ) ;
#598 = CIRCLE ( 'NONE', #86, 1.124999999999998002 ) ;
#599 = VECTOR ( 'NONE', #361, 1000.000000000000000 ) ;
#600 = CARTESIAN_POINT ( 'NONE',  ( 65.00000000000000000, 6.400000000000000355, 3.000000000000000444 ) ) ;
#601 = EDGE_CURVE ( 'NONE', #551, #453, #139, .T. ) ;
#602 = ADVANCED_BREP_SHAPE_REPRESENTATION ( 'SwitchHolders', ( #454, #92 ), #417 ) ;
#603 = CARTESIAN_POINT ( 'NONE',  ( 105.0000000000000000, 0.000000000000000000, 1.874999999999998890 ) ) ;
#604 = CARTESIAN_POINT ( 'NONE',  ( 54.99999999999999289, 6.400000000000000355, 3.000000000000000444 ) ) ;
#605 = ADVANCED_FACE ( 'NONE', ( #633 ), #79, .T. ) ;
#606 = VECTOR ( 'NONE', #257, 1000.000000000000000 ) ;
#607 = VERTEX_POINT ( 'NONE', #331 ) ;
#608 = CARTESIAN_POINT ( 'NONE',  ( 60.00000000000000000, 6.400000000000000355, 9.999999999999998224 ) ) ;
#609 = ORIENTED_EDGE ( 'NONE', *, *, #533, .T. ) ;
#610 = DIRECTION ( 'NONE',  ( -0.000000000000000000, -1.000000000000000000, -0.000000000000000000 ) ) ;
#611 = EDGE_CURVE ( 'NONE', #617, #44, #27, .T. ) ;
#612 = EDGE_LOOP ( 'NONE', ( #695, #206, #558, #523 ) ) ;
#613 = CYLINDRICAL_SURFACE ( 'NONE', #398, 1.125000000000001110 ) ;
#614 = DIRECTION ( 'NONE',  ( 0.000000000000000000, 0.000000000000000000, 1.000000000000000000 ) ) ;
#615 = AXIS2_PLACEMENT_3D ( 'NONE', #78, #241, #3 ) ;
#616 = VECTOR ( 'NONE', #423, 1000.000000000000000 ) ;
#617 = VERTEX_POINT ( 'NONE', #205 ) ;
#618 = CARTESIAN_POINT ( 'NONE',  ( 1.301042606982606110E-15, -2.000000000000000000, 10.00000000000000355 ) ) ;
#619 = DIRECTION ( 'NONE',  ( 0.000000000000000000, 0.000000000000000000, -1.000000000000000000 ) ) ;
#620 = ORIENTED_EDGE ( 'NONE', *, *, #353, .F. ) ;
#621 = LINE ( 'NONE', #747, #191 ) ;
#622 = CIRCLE ( 'NONE', #406, 1.124999999999998002 ) ;
#623 = CARTESIAN_POINT ( 'NONE',  ( 70.00000000000000000, 6.400000000000000355, 10.00000000000000178 ) ) ;
#624 = FACE_BOUND ( 'NONE', #178, .T. ) ;
#625 = ORIENTED_EDGE ( 'NONE', *, *, #724, .T. ) ;
#626 = DIRECTION ( 'NONE',  ( -1.000000000000000000, 0.000000000000000000, 1.301042606982605567E-16 ) ) ;
#627 = CARTESIAN_POINT ( 'NONE',  ( 54.99999999999999289, 6.400000000000000355, 3.000000000000000444 ) ) ;
#628 = EDGE_CURVE ( 'NONE', #551, #617, #287, .T. ) ;
#629 = CIRCLE ( 'NONE', #347, 1.124999999999998002 ) ;
#630 = ORIENTED_EDGE ( 'NONE', *, *, #733, .F. ) ;
#631 = FACE_BOUND ( 'NONE', #307, .T. ) ;
#632 = DIRECTION ( 'NONE',  ( 0.000000000000000000, 0.000000000000000000, 1.000000000000000000 ) ) ;
#633 = FACE_OUTER_BOUND ( 'NONE', #481, .T. ) ;
#634 = EDGE_LOOP ( 'NONE', ( #545, #192 ) ) ;
#635 = PLANE ( 'NONE',  #778 ) ;
#636 = LINE ( 'NONE', #753, #49 ) ;
#637 = CARTESIAN_POINT ( 'NONE',  ( 54.99999999999999289, 6.400000000000000355, 1.875000000000002442 ) ) ;
#638 = ORIENTED_EDGE ( 'NONE', *, *, #157, .T. ) ;
#639 = EDGE_CURVE ( 'NONE', #108, #322, #486, .T. ) ;
#640 = CARTESIAN_POINT ( 'NONE',  ( 49.99999999999999289, 0.000000000000000000, 9.999999999999996447 ) ) ;
#641 = CARTESIAN_POINT ( 'NONE',  ( 114.9999999999999858, 6.400000000000000355, 3.000000000000000000 ) ) ;
#642 = EDGE_LOOP ( 'NONE', ( #443, #408 ) ) ;
#643 = VECTOR ( 'NONE', #159, 1000.000000000000000 ) ;
#644 = AXIS2_PLACEMENT_3D ( 'NONE', #590, #163, #415 ) ;
#645 = EDGE_CURVE ( 'NONE', #497, #439, #518, .T. ) ;
#646 = DIRECTION ( 'NONE',  ( 0.000000000000000000, 0.000000000000000000, -1.000000000000000000 ) ) ;
#647 = EDGE_LOOP ( 'NONE', ( #118, #201 ) ) ;
#648 = CARTESIAN_POINT ( 'NONE',  ( 70.00000000000000000, 6.400000000000000355, 1.301042606982605321E-15 ) ) ;
#649 = VECTOR ( 'NONE', #2, 1000.000000000000000 ) ;
#650 = EDGE_CURVE ( 'NONE', #501, #322, #723, .T. ) ;
#651 = DIRECTION ( 'NONE',  ( -0.000000000000000000, -1.000000000000000000, -0.000000000000000000 ) ) ;
#652 = LINE ( 'NONE', #758, #358 ) ;
#653 = ORIENTED_EDGE ( 'NONE', *, *, #276, .T. ) ;
#654 = AXIS2_PLACEMENT_3D ( 'NONE', #396, #404, #85 ) ;
#655 = CARTESIAN_POINT ( 'NONE',  ( 49.99999999999999289, 6.400000000000000355, 1.301042606982605321E-15 ) ) ;
#656 = EDGE_LOOP ( 'NONE', ( #41, #367, #474, #698 ) ) ;
#657 = DIRECTION ( 'NONE',  ( 0.000000000000000000, 0.000000000000000000, 1.000000000000000000 ) ) ;
#658 = ORIENTED_EDGE ( 'NONE', *, *, #519, .T. ) ;
#659 = CARTESIAN_POINT ( 'NONE',  ( 120.0000000000000000, -2.000000000000000000, 0.000000000000000000 ) ) ;
#660 = EDGE_CURVE ( 'NONE', #28, #354, #168, .T. ) ;
#661 = DIRECTION ( 'NONE',  ( -0.000000000000000000, 0.000000000000000000, 1.000000000000000000 ) ) ;
#662 = VECTOR ( 'NONE', #491, 1000.000000000000000 ) ;
#663 = EDGE_CURVE ( 'NONE', #238, #765, #622, .T. ) ;
#664 = EDGE_LOOP ( 'NONE', ( #609, #677 ) ) ;
#665 = CARTESIAN_POINT ( 'NONE',  ( 105.0000000000000000, 6.400000000000000355, 1.874999999999998890 ) ) ;
#666 = CARTESIAN_POINT ( 'NONE',  ( 105.0000000000000000, 6.400000000000000355, 3.000000000000000000 ) ) ;
#667 = AXIS2_PLACEMENT_3D ( 'NONE', #345, #266, #35 ) ;
#668 = ORIENTED_EDGE ( 'NONE', *, *, #650, .F. ) ;
#669 = ORIENTED_EDGE ( 'NONE', *, *, #46, .T. ) ;
#670 = DIRECTION ( 'NONE',  ( 0.000000000000000000, 0.000000000000000000, 1.000000000000000000 ) ) ;
#671 = CARTESIAN_POINT ( 'NONE',  ( 5.000000000000000000, 6.400000000000000355, 1.874999999999999778 ) ) ;
#672 = ORIENTED_EDGE ( 'NONE', *, *, #639, .T. ) ;
#673 = DIRECTION ( 'NONE',  ( -1.000000000000000000, 0.000000000000000000, 1.301042606982605567E-16 ) ) ;
#674 = FACE_OUTER_BOUND ( 'NONE', #473, .T. ) ;
#675 = PRESENTATION_STYLE_ASSIGNMENT (( #187 ) ) ;
#676 = VECTOR ( 'NONE', #133, 1000.000000000000000 ) ;
#677 = ORIENTED_EDGE ( 'NONE', *, *, #81, .T. ) ;
#678 = FACE_BOUND ( 'NONE', #751, .T. ) ;
#679 = CARTESIAN_POINT ( 'NONE',  ( 70.00000000000000000, 6.400000000000000355, 1.301042606982605321E-15 ) ) ;
#680 =( LENGTH_UNIT ( ) NAMED_UNIT ( * ) SI_UNIT ( .MILLI., .METRE. ) );
#681 = VERTEX_POINT ( 'NONE', #19 ) ;
#682 = DIRECTION ( 'NONE',  ( 0.000000000000000000, 0.000000000000000000, 1.000000000000000000 ) ) ;
#683 = EDGE_CURVE ( 'NONE', #681, #262, #707, .T. ) ;
#684 = CARTESIAN_POINT ( 'NONE',  ( -1.128925512100531492E-14, 0.000000000000000000, 10.00000000000000000 ) ) ;
#685 = ORIENTED_EDGE ( 'NONE', *, *, #128, .F. ) ;
#686 = CARTESIAN_POINT ( 'NONE',  ( 65.00000000000000000, 6.400000000000000355, 1.875000000000002442 ) ) ;
#687 = LINE ( 'NONE', #561, #284 ) ;
#688 = ADVANCED_FACE ( 'NONE', ( #193, #631, #305 ), #556, .T. ) ;
#689 = VECTOR ( 'NONE', #147, 1000.000000000000000 ) ;
#690 = CARTESIAN_POINT ( 'NONE',  ( 49.99999999999999289, 6.400000000000000355, 10.00000000000000178 ) ) ;
#691 = ORIENTED_EDGE ( 'NONE', *, *, #177, .F. ) ;
#692 = FACE_OUTER_BOUND ( 'NONE', #301, .T. ) ;
#693 = EDGE_CURVE ( 'NONE', #760, #175, #583, .T. ) ;
#694 = DIRECTION ( 'NONE',  ( -0.000000000000000000, -1.000000000000000000, -0.000000000000000000 ) ) ;
#695 = ORIENTED_EDGE ( 'NONE', *, *, #55, .F. ) ;
#696 = DIRECTION ( 'NONE',  ( 1.000000000000000000, 0.000000000000000000, 0.000000000000000000 ) ) ;
#697 = DIRECTION ( 'NONE',  ( 0.000000000000000000, 0.000000000000000000, 1.000000000000000000 ) ) ;
#698 = ORIENTED_EDGE ( 'NONE', *, *, #390, .F. ) ;
#699 = EDGE_CURVE ( 'NONE', #108, #294, #123, .T. ) ;
#700 = DIRECTION ( 'NONE',  ( 1.000000000000000000, 0.000000000000000000, 0.000000000000000000 ) ) ;
#701 = DIRECTION ( 'NONE',  ( 0.000000000000000000, 0.000000000000000000, -1.000000000000000000 ) ) ;
#702 = ORIENTED_EDGE ( 'NONE', *, *, #276, .F. ) ;
#703 = AXIS2_PLACEMENT_3D ( 'NONE', #107, #105, #780 ) ;
#704 = DIRECTION ( 'NONE',  ( 1.000000000000000000, 0.000000000000000000, 1.301042606982605567E-16 ) ) ;
#705 = FACE_OUTER_BOUND ( 'NONE', #612, .T. ) ;
#706 = DIRECTION ( 'NONE',  ( 0.000000000000000000, 0.000000000000000000, 1.000000000000000000 ) ) ;
#707 = CIRCLE ( 'NONE', #93, 1.125000000000000888 ) ;
#708 = EDGE_CURVE ( 'NONE', #238, #538, #498, .T. ) ;
#709 = CARTESIAN_POINT ( 'NONE',  ( 0.000000000000000000, 6.400000000000000355, 0.000000000000000000 ) ) ;
#710 = EDGE_LOOP ( 'NONE', ( #573, #638, #669, #477 ) ) ;
#711 = ORIENTED_EDGE ( 'NONE', *, *, #601, .T. ) ;
#712 = CARTESIAN_POINT ( 'NONE',  ( 105.0000000000000000, 6.400000000000000355, 4.125000000000000888 ) ) ;
#713 = AXIS2_PLACEMENT_3D ( 'NONE', #89, #144, #528 ) ;
#714 = CIRCLE ( 'NONE', #213, 1.124999999999998002 ) ;
#715 = FACE_OUTER_BOUND ( 'NONE', #182, .T. ) ;
#716 = SURFACE_SIDE_STYLE ('',( #472 ) ) ;
#717 = PRODUCT_DEFINITION_SHAPE ( 'NONE', 'NONE',  #285 ) ;
#718 = ORIENTED_EDGE ( 'NONE', *, *, #320, .F. ) ;
#719 = CARTESIAN_POINT ( 'NONE',  ( 114.9999999999999858, 6.400000000000000355, 3.000000000000000000 ) ) ;
#720 = APPLICATION_CONTEXT ( 'automotive_design' ) ;
#721 = VECTOR ( 'NONE', #469, 1000.000000000000000 ) ;
#722 = ORIENTED_EDGE ( 'NONE', *, *, #509, .F. ) ;
#723 = LINE ( 'NONE', #228, #166 ) ;
#724 = EDGE_CURVE ( 'NONE', #242, #44, #621, .T. ) ;
#725 = DIRECTION ( 'NONE',  ( 0.000000000000000000, 1.000000000000000000, -0.000000000000000000 ) ) ;
#726 = ORIENTED_EDGE ( 'NONE', *, *, #446, .F. ) ;
#727 = CARTESIAN_POINT ( 'NONE',  ( 60.00000000000000000, 6.400000000000000355, 0.000000000000000000 ) ) ;
#728 = EDGE_LOOP ( 'NONE', ( #188, #769, #48, #196 ) ) ;
#729 = DIRECTION ( 'NONE',  ( 0.000000000000000000, 0.000000000000000000, 1.000000000000000000 ) ) ;
#730 = AXIS2_PLACEMENT_3D ( 'NONE', #16, #308, #442 ) ;
#731 = ORIENTED_EDGE ( 'NONE', *, *, #467, .T. ) ;
#732 = LINE ( 'NONE', #623, #662 ) ;
#733 = EDGE_CURVE ( 'NONE', #294, #126, #251, .T. ) ;
#734 = ORIENTED_EDGE ( 'NONE', *, *, #693, .F. ) ;
#735 = CARTESIAN_POINT ( 'NONE',  ( 65.00000000000000000, 6.400000000000000355, 4.124999999999998224 ) ) ;
#736 = EDGE_LOOP ( 'NONE', ( #18, #731, #422, #313 ) ) ;
#737 = PLANE ( 'NONE',  #253 ) ;
#738 = ORIENTED_EDGE ( 'NONE', *, *, #533, .F. ) ;
#739 = PLANE ( 'NONE',  #68 ) ;
#740 = CARTESIAN_POINT ( 'NONE',  ( 105.0000000000000000, 6.400000000000000355, 3.000000000000000000 ) ) ;
#741 = DIRECTION ( 'NONE',  ( 0.000000000000000000, 0.000000000000000000, 1.000000000000000000 ) ) ;
#742 = AXIS2_PLACEMENT_3D ( 'NONE', #666, #543, #237 ) ;
#743 = VECTOR ( 'NONE', #102, 1000.000000000000000 ) ;
#744 = ORIENTED_EDGE ( 'NONE', *, *, #209, .F. ) ;
#745 = CARTESIAN_POINT ( 'NONE',  ( 70.00000000000000000, 0.000000000000000000, 1.301042606982605321E-15 ) ) ;
#746 = ORIENTED_EDGE ( 'NONE', *, *, #611, .F. ) ;
#747 = CARTESIAN_POINT ( 'NONE',  ( 1.301042606982606110E-15, 0.000000000000000000, 10.00000000000000355 ) ) ;
#748 = VECTOR ( 'NONE', #626, 1000.000000000000000 ) ;
#749 = ADVANCED_FACE ( 'NONE', ( #752, #189, #502 ), #59, .T. ) ;
#750 = LINE ( 'NONE', #315, #676 ) ;
#751 = EDGE_LOOP ( 'NONE', ( #718, #685 ) ) ;
#752 = FACE_BOUND ( 'NONE', #647, .T. ) ;
#753 = CARTESIAN_POINT ( 'NONE',  ( 5.000000000000000000, 6.400000000000000355, 1.874999999999999778 ) ) ;
#754 = EDGE_CURVE ( 'NONE', #501, #617, #448, .T. ) ;
#755 = AXIS2_PLACEMENT_3D ( 'NONE', #51, #661, #532 ) ;
#756 = DIRECTION ( 'NONE',  ( 0.000000000000000000, 1.000000000000000000, 0.000000000000000000 ) ) ;
#757 = ORIENTED_EDGE ( 'NONE', *, *, #733, .T. ) ;
#758 = CARTESIAN_POINT ( 'NONE',  ( 120.0000000000000000, 0.000000000000000000, 10.00000000000000355 ) ) ;
#759 = DIRECTION ( 'NONE',  ( 0.000000000000000000, 1.000000000000000000, -0.000000000000000000 ) ) ;
#760 = VERTEX_POINT ( 'NONE', #127 ) ;
#761 = CARTESIAN_POINT ( 'NONE',  ( 54.99999999999999289, 6.400000000000000355, 1.875000000000002442 ) ) ;
#762 = ORIENTED_EDGE ( 'NONE', *, *, #724, .F. ) ;
#763 = DIRECTION ( 'NONE',  ( 0.000000000000000000, 0.000000000000000000, 1.000000000000000000 ) ) ;
#764 = CARTESIAN_POINT ( 'NONE',  ( 114.9999999999999858, 6.400000000000000355, 3.000000000000000000 ) ) ;
#765 = VERTEX_POINT ( 'NONE', #372 ) ;
#766 = AXIS2_PLACEMENT_3D ( 'NONE', #198, #99, #280 ) ;
#767 = EDGE_CURVE ( 'NONE', #246, #355, #136, .T. ) ;
#768 = FACE_OUTER_BOUND ( 'NONE', #256, .T. ) ;
#769 = ORIENTED_EDGE ( 'NONE', *, *, #767, .T. ) ;
#770 = CARTESIAN_POINT ( 'NONE',  ( 15.00000000000000000, 6.400000000000000355, 1.874999999999998890 ) ) ;
#771 = CIRCLE ( 'NONE', #155, 1.125000000000000222 ) ;
#772 = DIRECTION ( 'NONE',  ( 0.000000000000000000, 1.000000000000000000, -0.000000000000000000 ) ) ;
#773 = ORIENTED_EDGE ( 'NONE', *, *, #194, .F. ) ;
#774 = DIRECTION ( 'NONE',  ( -1.000000000000000000, 0.000000000000000000, -1.128925512100531492E-15 ) ) ;
#775 = ADVANCED_FACE ( 'NONE', ( #565 ), #739, .F. ) ;
#776 = ORIENTED_EDGE ( 'NONE', *, *, #39, .T. ) ;
#777 = DIRECTION ( 'NONE',  ( 0.000000000000000000, 0.000000000000000000, 1.000000000000000000 ) ) ;
#778 = AXIS2_PLACEMENT_3D ( 'NONE', #709, #772, #303 ) ;
#779 =( GEOMETRIC_REPRESENTATION_CONTEXT ( 3 ) GLOBAL_UNCERTAINTY_ASSIGNED_CONTEXT ( ( #389 ) ) GLOBAL_UNIT_ASSIGNED_CONTEXT ( ( #680, #7, #116 ) ) REPRESENTATION_CONTEXT ( 'NONE', 'WORKASPACE' ) );
#780 = DIRECTION ( 'NONE',  ( 0.000000000000000000, 0.000000000000000000, -1.000000000000000000 ) ) ;
#781 = EDGE_CURVE ( 'NONE', #765, #69, #368, .T. ) ;
#782 = LINE ( 'NONE', #296, #225 ) ;
#783 = AXIS2_PLACEMENT_3D ( 'NONE', #289, #534, #777 ) ;
#784 = CARTESIAN_POINT ( 'NONE',  ( 49.99999999999999289, 0.000000000000000000, 1.301042606982605321E-15 ) ) ;
#785 = DIRECTION ( 'NONE',  ( 0.000000000000000000, 1.000000000000000000, 0.000000000000000000 ) ) ;
#786 = ORIENTED_EDGE ( 'NONE', *, *, #487, .F. ) ;
#787 = ADVANCED_FACE ( 'NONE', ( #678, #559, #386 ), #77, .F. ) ;
ENDSEC;
END-ISO-10303-21;
